<svg xmlns="http://www.w3.org/2000/svg" width="45" height="43" fill="none" viewBox="0 0 45 43"><path fill="#1B1817" fill-rule="evenodd" d="M22.4777 0.254178C10.4844 0.254178 0.760406 9.97818 0.760406 21.9742C0.760406 31.5702 6.98307 39.7102 15.6137 42.5835C16.7004 42.7822 17.0964 42.1115 17.0964 41.5355C17.0964 41.0208 17.0777 39.6542 17.0671 37.8422C11.0257 39.1542 9.75107 34.9302 9.75107 34.9302C8.76307 32.4222 7.33907 31.7542 7.33907 31.7542C5.36707 30.4062 7.48841 30.4328 7.48841 30.4328C9.66841 30.5875 10.8151 32.6715 10.8151 32.6715C12.7524 35.9902 15.8991 35.0315 17.1364 34.4768C17.3337 33.0728 17.8937 32.1155 18.5151 31.5728C13.6924 31.0248 8.62174 29.1608 8.62174 20.8382C8.62174 18.4675 9.46841 16.5288 10.8577 15.0102C10.6337 14.4608 9.88841 12.2528 11.0697 9.26218C11.0697 9.26218 12.8937 8.67818 17.0431 11.4888C18.7751 11.0075 20.6337 10.7662 22.4804 10.7582C24.3244 10.7662 26.1831 11.0075 27.9177 11.4888C32.0644 8.67818 33.8844 9.26218 33.8844 9.26218C35.0697 12.2528 34.3244 14.4608 34.1004 15.0102C35.4924 16.5288 36.3337 18.4675 36.3337 20.8382C36.3337 29.1822 31.2551 31.0182 26.4164 31.5555C27.1964 32.2262 27.8911 33.5515 27.8911 35.5782C27.8911 38.4808 27.8644 40.8235 27.8644 41.5355C27.8644 42.1168 28.2551 42.7928 29.3577 42.5808C37.9817 39.7022 44.1991 31.5675 44.1991 21.9742C44.1991 9.97818 34.4737 0.254178 22.4777 0.254178Z" clip-rule="evenodd"/></svg>